<svg width="256" height="256" viewBox="0 0 256 256" fill="none" xmlns="http://www.w3.org/2000/svg">
<rect opacity="0.01" width="256" height="256" fill="white"/>
<path fill-rule="evenodd" clip-rule="evenodd" d="M132.571 148.114C145.195 148.114 155.429 158.348 155.429 170.971C155.429 183.407 145.498 193.523 133.135 193.822L132.571 193.829H130.743C124.179 193.829 118.857 199.15 118.857 205.714C118.857 212.136 123.95 217.368 130.317 217.592L130.743 217.6H199.314V228.571H130.743C118.119 228.571 107.886 218.338 107.886 205.714C107.886 193.279 117.816 183.163 130.179 182.864L130.743 182.857H132.571C139.136 182.857 144.457 177.536 144.457 170.971C144.457 164.55 139.365 159.318 132.998 159.093L132.571 159.086H67.6571V148.114H132.571Z" fill="#131523"/>
<path fill-rule="evenodd" clip-rule="evenodd" d="M67.6571 159.086C93.9143 159.086 115.2 129.613 115.2 93.2572C115.2 56.901 93.9143 27.4286 67.6571 27.4286C41.3999 27.4286 20.1143 56.901 20.1143 93.2572C20.1143 129.613 41.3999 159.086 67.6571 159.086ZM67.6571 96.9143C79.7758 96.9143 89.6 87.0901 89.6 74.9714C89.6 62.8527 79.7758 53.0286 67.6571 53.0286C55.5384 53.0286 45.7143 62.8527 45.7143 74.9714C45.7143 87.0901 55.5384 96.9143 67.6571 96.9143Z" fill="#FBA834"/>
<path fill-rule="evenodd" clip-rule="evenodd" d="M199.314 228.571C220.522 228.571 237.714 204.83 237.714 175.543C237.714 146.256 220.522 122.514 199.314 122.514C178.107 122.514 160.914 146.256 160.914 175.543C160.914 204.83 178.107 228.571 199.314 228.571ZM199.314 179.2C209.413 179.2 217.6 171.013 217.6 160.914C217.6 150.815 209.413 142.629 199.314 142.629C189.215 142.629 181.029 150.815 181.029 160.914C181.029 171.013 189.215 179.2 199.314 179.2Z" fill="#333A73"/>
</svg>
