<svg width="325" height="202" viewBox="0 0 325 202" fill="none" xmlns="http://www.w3.org/2000/svg">
<g clip-path="url(#clip0_37_131)">
<path d="M216.667 132.783C186.089 128.708 162.5 102.526 162.5 70.8334C162.5 36.3155 190.482 8.33337 225 8.33337C259.517 8.33337 287.5 36.3155 287.5 70.8334C287.5 102.526 263.912 128.708 233.333 132.783V150H275V166.667H233.333V200H216.667V166.667H175V150H216.667V132.783Z" fill="#FF83CD"/>
</g>
<path d="M154.882 43.6667H116.667V27H183.333V93.6667H166.667V55.4517L137.194 84.924C145.228 95.4392 150 108.579 150 122.833C150 157.351 122.017 185.333 87.5 185.333C52.9822 185.333 25 157.351 25 122.833C25 88.3158 52.9822 60.3333 87.5 60.3333C101.754 60.3333 114.894 65.1053 125.409 73.1388L154.882 43.6667Z" fill="#4B73B6"/>
<defs>
<clipPath id="clip0_37_131">
<rect width="200" height="200" fill="white" transform="translate(125)"/>
</clipPath>
</defs>
</svg>
