<svg width="913" height="838" viewBox="0 0 913 838" fill="none" xmlns="http://www.w3.org/2000/svg">
<line x1="4.57764e-05" y1="119.021" x2="912.127" y2="119.021" stroke="#0F1035" stroke-opacity="0.3"/>
<line x1="6.10352e-05" y1="465.298" x2="912.127" y2="465.298" stroke="#0F1035" stroke-opacity="0.3"/>
<line y1="292.16" x2="912.127" y2="292.16" stroke="#0F1035" stroke-opacity="0.3"/>
<line x1="6.10352e-05" y1="638.436" x2="912.127" y2="638.436" stroke="#0F1035" stroke-opacity="0.3"/>
<line x1="1.52588e-05" y1="205.032" x2="912.127" y2="205.032" stroke="#0F1035" stroke-opacity="0.3"/>
<line x1="-1.52588e-05" y1="552.425" x2="912.127" y2="552.425" stroke="#0F1035" stroke-opacity="0.3"/>
<line x1="3.05176e-05" y1="378.17" x2="912.127" y2="378.17" stroke="#0F1035" stroke-opacity="0.3"/>
<line x1="3.05176e-05" y1="724.447" x2="912.127" y2="724.447" stroke="#0F1035" stroke-opacity="0.3"/>
<line x1="811.19" y1="-3.05176e-05" x2="811.19" y2="837.766" stroke="#0F1035" stroke-opacity="0.3"/>
<line x1="402.413" y1="-3.05176e-05" x2="402.413" y2="837.766" stroke="#0F1035" stroke-opacity="0.3"/>
<line x1="606.802" y1="-3.05176e-05" x2="606.802" y2="837.766" stroke="#0F1035" stroke-opacity="0.3"/>
<line x1="198.025" y1="-3.05176e-05" x2="198.025" y2="837.766" stroke="#0F1035" stroke-opacity="0.3"/>
<line x1="708.996" y1="-3.05176e-05" x2="708.996" y2="837.766" stroke="#0F1035" stroke-opacity="0.3"/>
<line x1="300.219" y1="-6.10352e-05" x2="300.219" y2="837.766" stroke="#0F1035" stroke-opacity="0.3"/>
<line x1="504.608" x2="504.607" y2="837.766" stroke="#0F1035" stroke-opacity="0.3"/>
<line x1="96.5931" y1="-3.04936e-05" x2="96.5931" y2="837.766" stroke="#0F1035" stroke-opacity="0.3"/>
</svg>
