<svg width="54" height="54" viewBox="0 0 54 54" fill="none" xmlns="http://www.w3.org/2000/svg">
<circle cx="26.6667" cy="26.6667" r="26.6667" fill="#F1F1F1"/>
<path d="M28.7612 13.4456C30.3243 13.4481 31.1164 13.4564 31.8008 13.4768L32.0704 13.4856C32.3818 13.4967 32.689 13.5106 33.0594 13.5279C34.5374 13.5962 35.5456 13.83 36.431 14.1738C37.3464 14.5268 38.1196 15.0036 38.8915 15.7756C39.6624 16.5476 40.1393 17.3231 40.4935 18.2363C40.836 19.1205 41.0699 20.1298 41.1393 21.6078C41.1558 21.9782 41.1692 22.2854 41.1801 22.5968L41.1889 22.8664C41.2092 23.5508 41.2185 24.343 41.2214 25.9061L41.2225 26.9416C41.2226 27.0682 41.2226 27.1987 41.2226 27.3334L41.2225 27.7252L41.2217 28.7609C41.219 30.324 41.2108 31.1162 41.1904 31.8005L41.1815 32.0701C41.1705 32.3816 41.1567 32.6888 41.1393 33.0591C41.071 34.5372 40.836 35.5452 40.4935 36.4307C40.1404 37.3462 39.6624 38.1194 38.8915 38.8913C38.1196 39.6622 37.3429 40.139 36.431 40.4932C35.5456 40.8358 34.5374 41.0695 33.0594 41.139C32.689 41.1555 32.3818 41.169 32.0704 41.1798L31.8008 41.1886C31.1164 41.209 30.3243 41.2182 28.7612 41.2212L27.7255 41.2223C27.599 41.2223 27.4685 41.2223 27.3337 41.2223H26.9419L25.9062 41.2213C24.3432 41.2188 23.551 41.2105 22.8666 41.1901L22.5971 41.1813C22.2856 41.1702 21.9784 41.1563 21.608 41.139C20.13 41.0708 19.1231 40.8358 18.2365 40.4932C17.3221 40.1402 16.5478 39.6622 15.7758 38.8913C15.0039 38.1194 14.5282 37.3427 14.174 36.4307C13.8302 35.5452 13.5976 34.5372 13.5282 33.0591C13.5117 32.6888 13.4982 32.3816 13.4873 32.0701L13.4786 31.8005C13.4582 31.1162 13.449 30.324 13.446 28.7609L13.4458 25.9061C13.4484 24.343 13.4566 23.5508 13.477 22.8664L13.4858 22.5968C13.4969 22.2854 13.5108 21.9782 13.5282 21.6078C13.5964 20.1286 13.8302 19.1217 14.174 18.2363C14.527 17.3219 15.0039 16.5476 15.7758 15.7756C16.5478 15.0036 17.3233 14.5279 18.2365 14.1738C19.1219 13.83 20.1289 13.5974 21.608 13.5279C21.9784 13.5114 22.2856 13.498 22.5971 13.4871L22.8666 13.4783C23.551 13.458 24.3432 13.4487 25.9062 13.4457L28.7612 13.4456ZM27.3337 20.389C23.4964 20.389 20.3893 23.4995 20.3893 27.3334C20.3893 31.1708 23.4997 34.2779 27.3337 34.2779C31.1711 34.2779 34.2782 31.1675 34.2782 27.3334C34.2782 23.4961 31.1676 20.389 27.3337 20.389ZM27.3337 23.1668C29.635 23.1668 31.5004 25.0316 31.5004 27.3334C31.5004 29.6347 29.6356 31.5001 27.3337 31.5001C25.0325 31.5001 23.1671 29.6354 23.1671 27.3334C23.1671 25.0322 25.0318 23.1668 27.3337 23.1668ZM34.6254 18.3057C33.668 18.3057 32.8893 19.0833 32.8893 20.0406C32.8893 20.9979 33.6669 21.7768 34.6254 21.7768C35.5826 21.7768 36.3615 20.9991 36.3615 20.0406C36.3615 19.0833 35.5814 18.3045 34.6254 18.3057Z" fill="#387ADF"/>
</svg>
