<svg width="54" height="54" viewBox="0 0 54 54" fill="none" xmlns="http://www.w3.org/2000/svg">
<circle cx="27.3334" cy="26.6667" r="26.6667" fill="#F1F1F1"/>
<path d="M28.3387 16.2224C29.0805 16.2265 30.9365 16.2444 32.9084 16.3234L33.6076 16.3539C35.593 16.4479 37.5768 16.6085 38.5607 16.8828C39.873 17.2515 40.9046 18.3273 41.2532 19.6909C41.8083 21.8563 41.8777 26.0827 41.8864 27.1055L41.8876 27.3174V27.3323C41.8876 27.3323 41.8876 27.3374 41.8876 27.3473L41.8864 27.5592C41.8777 28.582 41.8083 32.8084 41.2532 34.9738C40.8997 36.3424 39.8682 37.4182 38.5607 37.7819C37.5768 38.0562 35.593 38.2167 33.6076 38.3107L32.9084 38.3412C30.9365 38.4202 29.0805 38.4381 28.3387 38.4423L28.0132 38.4434H27.9987C27.9987 38.4434 27.9939 38.4434 27.9843 38.4434L27.659 38.4423C26.089 38.4337 19.5246 38.3627 17.4368 37.7819C16.1244 37.4131 15.0929 36.3374 14.7442 34.9738C14.1891 32.8084 14.1198 28.582 14.1111 27.5592V27.1055C14.1198 26.0827 14.1891 21.8563 14.7442 19.6909C15.0978 18.3222 16.1293 17.2465 17.4368 16.8828C19.5246 16.3019 26.089 16.2311 27.659 16.2224H28.3387ZM25.221 22.4712V32.1934L33.5543 27.3323L25.221 22.4712Z" fill="#387ADF"/>
</svg>
