<svg width="200" height="53" viewBox="0 0 200 53" fill="none" xmlns="http://www.w3.org/2000/svg">
<path d="M89.7471 1.79833C89.7471 3.78213 89.6697 3.6631 91.3525 3.92099L92.2615 4.04002V15.8039V27.5678L91.3525 27.6868C89.6697 27.9447 89.7471 27.8257 89.7471 29.8095V31.575H94.6793H99.6115V29.8095C99.6115 27.8455 99.6695 27.905 98.0641 27.6868L97.097 27.5479V13.8003V0.0327594H93.4221H89.7471V1.79833Z" fill="#387ADF"/>
<path d="M47.1946 3.88131V5.74608L47.7362 5.86511C48.0263 5.92462 48.5872 6.02381 48.9934 6.10316L49.709 6.22219V16.895V27.5678L48.8 27.6868C47.1172 27.9447 47.1946 27.8257 47.1946 29.8095V31.575H52.1268H57.059V29.8095C57.059 27.8455 57.117 27.905 55.5117 27.6868L54.5446 27.5479V23.2233C54.5446 20.8229 54.6026 18.8788 54.6993 18.8788C54.7767 18.8986 57.0977 21.7553 59.8636 25.2269L64.8925 31.5552L67.7552 31.575H70.6178L70.5598 29.7301L70.5017 27.905L69.2832 27.7463L68.0646 27.5678L63.4999 22.1917C61.0048 19.216 58.9159 16.6768 58.8578 16.5577C58.7805 16.3594 67.8906 6.40073 68.2774 6.24203C68.3354 6.22219 68.877 6.10316 69.4959 5.98413L70.5984 5.76592V3.88131V2.01655H65.2794H59.9603V3.88131V5.76592L61.0241 5.98413L62.1073 6.22219L61.1208 7.33311C60.5986 7.94809 58.8965 9.79301 57.3685 11.4396L54.5639 14.4152L54.5446 10.3286V6.22219L55.2796 6.10316C55.6664 6.02381 56.2273 5.92462 56.5368 5.86511L57.059 5.74608V3.88131V2.01655H52.1268H47.1946V3.88131Z" fill="#387ADF"/>
<path d="M75.492 10.9039C74.1961 11.38 73.3064 12.0942 72.5714 13.2448C71.6623 14.6335 71.5269 15.7642 71.6043 20.8427C71.6816 24.7706 71.7397 25.4451 72.0685 26.3378C72.9969 28.6787 74.7183 30.4046 76.9233 31.1584C78.0065 31.5354 78.5867 31.575 82.4938 31.575H86.8458V29.2937V27.0123H82.6486C78.7608 27.0123 78.374 26.9726 77.7937 26.6156C77.1941 26.2386 76.227 24.5524 76.4591 24.3144C76.4978 24.2549 78.1999 23.7986 80.2115 23.2828C84.2539 22.2512 85.4532 21.6561 86.4976 20.1881C88.1804 17.8075 87.8129 13.8995 85.7239 12.1339C84.1572 10.8246 83.5963 10.6659 79.8826 10.6064C76.9813 10.5469 76.3431 10.5865 75.492 10.9039ZM82.3004 15.6055C82.9 16.2007 82.9193 16.9148 82.3584 17.5893C82.0103 17.9861 81.372 18.2241 79.3024 18.7796C77.8711 19.1565 76.6138 19.4739 76.5365 19.4739C76.4398 19.4739 76.4011 18.6606 76.4398 17.6687C76.5171 15.2088 76.6332 15.1096 79.6312 15.1096C81.7201 15.1096 81.8555 15.1294 82.3004 15.6055Z" fill="#387ADF"/>
<path d="M99.2247 12.4116V14.2962L100.25 14.4152C100.83 14.4946 101.391 14.6136 101.507 14.693C101.642 14.7723 101.739 16.776 101.778 20.9618C101.836 26.7346 101.855 27.171 102.242 28.0241C102.842 29.3334 103.751 30.2856 104.989 30.9204C106.033 31.4362 106.226 31.4759 108.702 31.4759C111.178 31.4759 111.371 31.4362 112.319 30.9402L113.325 30.3848L113.731 30.9799L114.137 31.575H117.232H120.307V29.8095C120.307 27.8257 120.385 27.9447 118.721 27.6868L117.793 27.5678V21.1601V14.7525L118.76 14.5343C119.302 14.4152 119.882 14.3161 120.017 14.3161C120.249 14.3161 120.307 13.9391 120.307 12.4315V10.5469H115.375H110.443V12.4315C110.443 13.9391 110.501 14.3161 110.733 14.3161C110.869 14.3161 111.449 14.4152 111.99 14.5343L112.977 14.7525L112.919 19.8508L112.861 24.969L112.319 25.6832C111.526 26.7544 110.907 27.0123 109.147 27.0123C106.555 26.9925 106.575 27.0322 106.575 20.1881V14.7525L107.116 14.6335C107.406 14.574 107.967 14.4748 108.373 14.3954L109.089 14.2764V12.4116V10.5469H104.157H99.2247V12.4116Z" fill="#387ADF"/>
<path d="M124.176 14.0978V17.6885H125.897C127.832 17.6885 127.715 17.7679 127.967 16.042L128.083 15.1096H130.288C132.3 15.1096 132.512 15.1493 132.996 15.5658C133.383 15.9229 133.537 16.2602 133.595 17.0339L133.692 18.0257L130.075 18.9581C125.24 20.1881 124.253 20.7435 123.093 22.886C122.59 23.8383 122.532 24.116 122.532 25.7229C122.532 27.2901 122.609 27.6471 123.073 28.6589C123.692 29.9285 124.466 30.6228 125.917 31.1981C126.806 31.5354 127.445 31.575 133.847 31.575H140.829L140.771 29.7301L140.713 27.905L139.611 27.7265L138.528 27.5678L138.45 21.3784C138.392 15.546 138.373 15.1493 137.967 14.2764C137.27 12.7092 136.593 11.9752 135.24 11.3007L133.963 10.646L129.069 10.5865L124.176 10.527V14.0978ZM133.654 24.8302V27.0123H131.062C129.63 27.0123 128.315 26.9528 128.141 26.8933C127.774 26.7346 127.271 25.8022 127.271 25.2467C127.271 24.354 128.025 23.8779 130.462 23.263C133.944 22.3901 133.654 22.2512 133.654 24.8302Z" fill="#387ADF"/>
<path d="M142.744 12.4116V14.2962L143.673 14.4351C145.394 14.693 145.278 14.1177 145.22 21.2197L145.162 27.5083L144.001 27.7067L142.841 27.9249L142.783 29.75L142.725 31.575H147.58H152.435L152.377 29.75L152.319 27.9249L151.158 27.7067L149.998 27.5083V22.5488C149.998 17.9266 150.017 17.5298 150.404 16.7958C150.926 15.7246 152.106 15.1096 153.595 15.1096H154.698L154.814 16.042C155.065 17.7679 154.949 17.6885 156.883 17.6885H158.605V14.0978V10.5072L155.278 10.5865C152.086 10.646 151.874 10.6659 150.771 11.2015L149.63 11.757L149.282 11.3007C149.088 11.0428 148.934 10.7849 148.934 10.6857C148.934 10.6064 147.541 10.5469 145.839 10.5469H142.744V12.4116Z" fill="#387ADF"/>
<path d="M164.639 10.9238C163.286 11.3999 162.357 12.2133 161.622 13.5226L161.022 14.6137V20.1683V25.7229L161.622 27.0124C162.647 29.2342 163.924 30.4046 166.109 31.1585C167.057 31.4957 167.792 31.5751 169.63 31.5751H171.951V33.0431C171.951 34.2135 171.873 34.6103 171.525 35.1459C170.519 36.6337 169.668 36.9115 166.013 36.9313H163.44V39.1135V41.2957H166.728C169.533 41.2957 170.21 41.2361 171.196 40.8989C173.459 40.1054 175.026 38.6572 176.071 36.3759L176.69 35.0467L176.748 24.8897L176.806 14.7327L177.328 14.6335C177.618 14.574 178.179 14.4748 178.585 14.3954L179.301 14.2764V12.4117V10.5469H172.492C166.38 10.5667 165.549 10.6064 164.639 10.9238ZM171.951 21.061V27.0124H169.804C167.986 27.0124 167.541 26.9528 167.019 26.6156C165.858 25.8816 165.761 25.3856 165.761 20.446C165.761 14.7525 165.529 15.1096 169.282 15.1096H171.951V21.061Z" fill="#387ADF"/>
<path d="M183.169 14.0978V17.6885H184.987H186.805L186.921 16.7363C187.173 14.9905 186.999 15.1096 189.475 15.1096C191.583 15.1096 191.718 15.1294 192.163 15.6055C192.55 15.9824 192.647 16.28 192.647 17.0537V18.0456L189.03 18.9581C185.2 19.95 184.31 20.3468 183.13 21.5966C182.047 22.7472 181.583 24.0168 181.602 25.7427C181.622 27.7662 182.163 29.1548 183.304 30.1864C184.794 31.5155 185.2 31.575 193.072 31.575H199.997V29.7896C199.997 27.8058 200.151 28.0042 198.353 27.6471L197.579 27.4884L197.482 21.2593L197.385 15.0104L196.844 13.8796C196.225 12.61 195.297 11.6776 194.02 11.0626C193.208 10.6857 192.724 10.646 188.159 10.5865L183.169 10.527V14.0978ZM192.647 24.8302V27.0123H190.055C187.618 27.0123 187.405 26.9726 186.96 26.5561C186.419 26.0799 186.303 25.6038 186.515 24.7905C186.709 24.0763 187.115 23.8581 189.649 23.2233C192.917 22.4099 192.647 22.2512 192.647 24.8302Z" fill="#387ADF"/>
<path d="M15.0482 5.64689L11.0444 8.04728L12.1856 8.62258L13.3267 9.19788L14.9321 8.24566C15.8219 7.72987 16.9244 7.01571 17.4079 6.67846C18.6651 5.76592 19.2841 5.58738 20.1158 5.94446C20.4833 6.10316 20.9475 6.36105 21.1603 6.5396C21.3537 6.73797 22.4368 7.4323 23.578 8.10679C25.4735 9.21771 25.6476 9.29707 25.9764 8.9995C26.1698 8.84079 26.6147 8.54322 27.0016 8.38452L27.6785 8.06711L23.6554 5.68657C21.4504 4.37726 19.5162 3.28618 19.3421 3.26634C19.1874 3.2465 17.2532 4.31775 15.0482 5.64689Z" fill="#387ADF"/>
<path d="M18.4137 7.43233C17.64 8.28536 17.3692 9.89223 17.9108 10.4477C18.2009 10.7453 18.2783 10.7254 18.7812 10.1104L19.3421 9.45579L19.9223 10.1104C20.4059 10.6461 20.58 10.7254 20.8121 10.5469C21.1409 10.2493 21.1796 8.92017 20.8701 8.3052C20.1931 6.95622 19.168 6.59913 18.4137 7.43233Z" fill="#387ADF"/>
<path d="M9.76776 9.75335C9.24553 10.3286 9.26487 11.9554 9.80645 12.6894C10.348 13.4234 11.025 13.5225 11.025 12.8679C11.025 11.757 11.5279 11.4396 12.3016 12.0347C12.8431 12.4513 12.9592 12.3918 12.9592 11.6578C12.9592 10.8643 12.4176 10.1104 11.5279 9.67399C10.6575 9.2574 10.1933 9.27724 9.76776 9.75335Z" fill="#387ADF"/>
<path d="M27.0595 9.77321C26.3052 10.2295 25.7249 11.0627 25.7249 11.6776C25.7249 12.2529 25.9183 12.3521 26.3825 12.0347C27.1756 11.4594 27.8525 11.8562 27.8525 12.9076C27.8525 13.4631 28.2781 13.4234 28.839 12.8084C29.2258 12.3918 29.3032 12.0942 29.3032 11.1023C29.3032 10.17 29.2258 9.8724 28.9357 9.63434C28.4135 9.25742 27.8719 9.2971 27.0595 9.77321Z" fill="#387ADF"/>
<path d="M4.21656 12.0942L0 14.6136V19.6525V24.7111L0.541577 24.1953C0.831708 23.9176 1.25723 23.5804 1.50868 23.4613C1.9342 23.2431 1.9342 23.1638 1.9342 19.6723V16.1015L2.47578 15.6055C2.78525 15.3278 3.75236 14.7128 4.66143 14.2565C5.55116 13.7804 6.71169 13.1258 7.25326 12.8084C8.16234 12.2331 8.20102 12.1736 8.16234 11.4197C8.12366 10.9833 8.18168 10.3881 8.29773 10.0906C8.41379 9.79301 8.47181 9.55495 8.45247 9.57479C8.43313 9.57479 6.51827 10.7056 4.21656 12.0942Z" fill="#387ADF"/>
<path d="M30.5218 11.0031L30.5992 12.2331L32.6494 13.4432C33.7906 14.1177 34.9898 14.7723 35.338 14.8914C35.6668 15.0302 36.131 15.3476 36.3631 15.6055C36.7886 16.0816 36.8079 16.2007 36.7693 19.6723C36.7306 22.9456 36.7693 23.263 37.0787 23.382C37.2722 23.4415 37.717 23.7192 38.0652 23.9771L38.6841 24.4532V19.5334V14.5938L34.6803 12.2331C32.4753 10.9238 30.6378 9.8327 30.5798 9.79303C30.5024 9.77319 30.4831 10.3088 30.5218 11.0031Z" fill="#387ADF"/>
<path d="M15.2416 12.2727C14.5259 13.0663 14.3132 14.4152 14.758 15.2881C15.1062 16.0023 15.4157 16.0023 15.551 15.2881C15.8025 13.9788 16.4988 13.7606 17.2725 14.7128C17.5433 15.0302 17.8141 15.3079 17.8527 15.3079C18.1042 15.3079 18.1622 14.5938 17.9688 13.8995C17.5433 12.4513 15.9379 11.4792 15.2416 12.2727Z" fill="#387ADF"/>
<path d="M22.0112 12.2331C21.3536 12.61 20.696 13.7209 20.696 14.4748C20.696 15.3278 20.9474 15.3873 21.4503 14.7128C22.1466 13.7408 22.8816 13.9987 23.1331 15.2683C23.2878 16.0221 23.4619 16.0618 23.8681 15.4667C24.6031 14.3954 23.8874 11.9157 22.8623 11.9355C22.6882 11.9554 22.3014 12.0744 22.0112 12.2331Z" fill="#387ADF"/>
<path d="M9.65167 15.5658C9.40022 15.7047 9.12943 16.1015 9.03272 16.4387C8.78127 17.2917 9.53561 18.8986 10.29 19.1565C10.9669 19.3946 11.1023 19.2557 10.8122 18.6209C10.6961 18.3432 10.6575 17.867 10.7155 17.5893C10.8315 17.1132 10.9282 17.0537 11.4698 17.1529C11.818 17.2124 12.2435 17.3116 12.4369 17.3909C12.6884 17.4901 12.7657 17.4306 12.7657 17.133C12.7657 16.6569 11.7793 15.7444 11.0636 15.5857C10.7735 15.5262 10.4447 15.4468 10.3286 15.4071C10.2126 15.3675 9.90311 15.4468 9.65167 15.5658Z" fill="#387ADF"/>
<path d="M27.5624 15.6055C26.75 15.9031 25.9183 16.7165 25.9183 17.2322C25.9183 17.4306 26.015 17.4901 26.2665 17.3909C27.7558 16.7958 28.3941 17.2124 27.9492 18.5415C27.7171 19.216 27.7365 19.2755 28.0846 19.2755C28.6456 19.2755 29.5546 18.244 29.69 17.4306C29.9028 16.3395 29.69 15.7841 28.9937 15.5262C28.6456 15.4072 28.3748 15.308 28.3554 15.308C28.3361 15.3278 27.9879 15.4468 27.5624 15.6055Z" fill="#387ADF"/>
<path d="M3.42353 16.2602C2.74656 17.0339 3.21077 18.6011 4.31326 19.2755C4.66142 19.4938 5.08695 19.6723 5.26102 19.6723C5.68655 19.6723 5.89931 19.2954 5.62852 19.0177C5.29971 18.6804 5.37708 17.748 5.72523 17.6092C5.89931 17.5496 6.24747 17.4901 6.49891 17.4901C7.00181 17.4901 7.07918 17.2719 6.7697 16.6966C6.36352 15.9031 4.00379 15.6055 3.42353 16.2602Z" fill="#387ADF"/>
<path d="M32.5527 16.2999C31.779 16.776 31.6823 17.4901 32.3593 17.4901C32.6107 17.4901 32.9782 17.6092 33.1716 17.7679C33.5391 18.0257 33.5391 18.0853 33.2297 18.7598C32.9008 19.4342 32.9202 19.4541 33.2877 19.5731C33.7519 19.7318 34.7383 19.1763 35.2606 18.4225C35.7828 17.7282 35.8022 16.5577 35.2993 16.1808C34.7577 15.7642 33.2877 15.8436 32.5527 16.2999Z" fill="#387ADF"/>
<path d="M18.2976 17.0934C17.7173 17.8075 17.4659 19.2359 17.814 19.8905C18.0461 20.3468 18.0461 20.3269 18.2976 19.5136C18.4136 19.0375 18.6457 18.5415 18.7618 18.3828C19.342 17.6687 20.2511 18.3233 20.4445 19.5533C20.5413 20.1286 20.5993 20.2278 20.812 20.0492C20.9668 19.9302 21.0828 19.4739 21.0828 19.0573C21.0828 16.8751 19.4388 15.7047 18.2976 17.0934Z" fill="#387ADF"/>
<path d="M12.9979 19.1168C12.4756 19.3946 12.2822 20.0294 12.4756 21.0014C12.6304 21.8346 13.5201 22.8464 14.1004 22.8464C14.4872 22.8464 14.4872 22.8265 14.023 22.1322C13.5201 21.3784 13.4621 21.1006 13.6555 20.5849C13.8296 20.1286 14.9321 20.1881 15.551 20.684C16.1893 21.1998 16.4407 21.0213 16.0539 20.3071C15.5123 19.3549 13.8489 18.7003 12.9979 19.1168Z" fill="#387ADF"/>
<path d="M24.0422 19.1764C23.2298 19.5334 22.6302 20.1683 22.6302 20.684V21.0808L23.1331 20.684C23.6747 20.2476 24.8352 20.1286 25.0479 20.4857C25.2607 20.8229 24.9706 21.9537 24.545 22.4099C24.1969 22.8067 24.1776 22.8464 24.5064 22.8464C25.899 22.8464 26.9821 19.9699 25.8797 19.1962C25.3574 18.8193 24.8545 18.7994 24.0422 19.1764Z" fill="#387ADF"/>
<path d="M7.00182 21.2593C6.15077 21.4577 5.60919 21.9933 5.60919 22.648C5.60919 23.6994 6.90511 24.8301 8.10431 24.8301C8.91668 24.8301 8.97471 24.5722 8.31708 24.0565C7.29195 23.3026 7.67879 22.2512 8.97471 22.2512C9.55497 22.2512 9.61299 22.033 9.14878 21.6164C8.70392 21.2196 7.81418 21.0808 7.00182 21.2593Z" fill="#387ADF"/>
<path d="M29.5547 21.6957L29.1098 22.152L29.7868 22.2115C30.4444 22.271 31.1407 22.7273 31.1407 23.0844C31.1407 23.1836 30.8699 23.5407 30.5605 23.8779C29.9222 24.5326 29.9609 24.8301 30.6765 24.8301C31.779 24.8301 33.0749 23.6795 33.0749 22.7273C33.0749 21.7751 32.3399 21.2593 31.0247 21.2593C30.193 21.2593 29.8835 21.3585 29.5547 21.6957Z" fill="#387ADF"/>
<path d="M2.24371 24.5326C1.39267 24.8302 0.87043 25.3063 0.696352 25.9411C0.386879 26.9727 2.5145 28.3018 3.71371 27.8257C4.46805 27.5281 4.48739 27.3297 3.86845 26.8338C3.15279 26.2982 3.13345 25.9609 3.79108 25.4451C4.31331 25.0286 4.31331 24.4334 3.79108 24.4334C3.63634 24.4334 3.40424 24.3937 3.2495 24.3342C3.11411 24.2945 2.6499 24.3739 2.24371 24.5326Z" fill="#387ADF"/>
<path d="M11.2958 24.6119C10.5221 24.969 9.86444 25.6832 9.86444 26.1395C9.86444 26.2783 10.0772 26.6552 10.348 26.9726C10.9476 27.7066 12.2435 28.1232 13.0172 27.8257C13.6942 27.5678 13.6942 27.3099 13.0172 27.2504C12.4563 27.2107 11.5859 26.6552 11.4505 26.2585C11.3151 25.8419 12.3209 25.0285 12.9592 25.0285C13.6748 25.0285 13.7135 24.6913 13.0365 24.4334C12.3789 24.1755 12.2242 24.1755 11.2958 24.6119Z" fill="#387ADF"/>
<path d="M25.5121 24.6119L25.0479 25.0087L25.6669 25.0285C26.4986 25.0285 27.369 25.8022 27.1949 26.3577C27.0595 26.7941 26.3051 27.2107 25.5701 27.2702C24.9899 27.3099 25.1253 27.6273 25.8023 27.8654C26.5179 28.1034 27.7365 27.7463 28.3554 27.1115C29.3999 26.0403 28.6068 24.8103 26.5759 24.3541C26.1311 24.2549 25.8603 24.3144 25.5121 24.6119Z" fill="#387ADF"/>
<path d="M34.8737 24.5326C34.3128 24.9492 34.3128 25.1079 34.9124 25.3856C35.2412 25.5443 35.396 25.7824 35.396 26.1196C35.396 26.4569 35.2412 26.6949 34.9124 26.8536C34.2741 27.1512 34.2935 27.5083 34.9898 27.786C36.1116 28.282 38.1038 27.2305 38.1038 26.1395C38.1038 24.969 35.8215 23.8581 34.8737 24.5326Z" fill="#387ADF"/>
<path d="M6.86644 27.8852C5.51249 28.7184 5.24171 29.8888 6.20881 30.6427C6.88578 31.1585 8.56854 31.1783 9.09077 30.6823C9.65169 30.1666 9.57432 29.988 8.81998 29.988C8.47183 29.988 8.06564 29.8492 7.93025 29.6905C7.60143 29.2739 7.85288 28.4605 8.43314 28.0836C8.80064 27.8257 8.85867 27.7067 8.66525 27.5876C8.23972 27.2901 7.6788 27.3893 6.86644 27.8852Z" fill="#387ADF"/>
<path d="M30.0962 27.5678C30.0382 27.6868 30.2316 28.0439 30.5604 28.3613C30.8699 28.6986 31.1407 29.0556 31.1407 29.1747C31.1407 29.5119 30.309 29.988 29.7481 29.988C29.4386 29.988 29.2065 30.0674 29.2065 30.1666C29.2065 30.603 30.0962 30.9799 31.102 30.9799C31.9917 30.9799 32.2238 30.9006 32.7074 30.4046C33.0169 30.0872 33.2683 29.75 33.2683 29.6508C33.2683 29.3135 32.4946 28.2026 32.0498 27.905C31.4502 27.5083 30.2703 27.2901 30.0962 27.5678Z" fill="#387ADF"/>
<path d="M0 32.5868V37.6455L3.32683 39.6094C5.16432 40.7005 7.07919 41.8313 7.58208 42.1288L8.49116 42.6843L8.27839 42.0892C8.18168 41.7519 8.12366 41.1766 8.16234 40.7799L8.23971 40.0855L6.05406 38.8159C4.85485 38.1017 3.81038 37.5264 3.71367 37.5264C3.61696 37.5264 3.17209 37.2487 2.74657 36.9313L1.9342 36.3362V32.6661V29.016L1.25723 28.6787C0.870392 28.5002 0.444867 28.1629 0.290131 27.9249C0.0386841 27.5678 0 28.0836 0 32.5868Z" fill="#387ADF"/>
<path d="M38.2199 28.1828C38.0265 28.401 37.6203 28.6787 37.3109 28.8176L36.7306 29.0557L36.7693 32.5868C36.8273 36.0386 36.8273 36.1378 36.3824 36.6139C36.131 36.8718 35.6668 37.209 35.338 37.3479C34.9898 37.4868 33.7906 38.1216 32.6494 38.7961L30.5992 40.0062L30.5218 41.256C30.4831 41.9305 30.4831 42.4859 30.5218 42.4859C30.5605 42.4859 32.398 41.4147 34.6223 40.0855L38.6842 37.6852V32.7455C38.6842 30.0277 38.6455 27.8059 38.6261 27.8059C38.5874 27.8059 38.394 27.9844 38.2199 28.1828Z" fill="#387ADF"/>
<path d="M13.3074 29.9285C12.2629 31.0394 12.0695 32.5471 12.8818 33.1026C13.3267 33.3803 13.5008 33.4002 14.2938 33.2018C15.1835 32.9637 16.2473 32.0313 16.2473 31.4957C16.2473 31.3172 15.9766 31.3767 15.2996 31.7139C14.5066 32.1305 14.2745 32.1702 13.9263 31.9718C13.5781 31.7735 13.5201 31.6147 13.6168 31.1188C13.6749 30.7617 13.907 30.2459 14.1197 29.9285C14.5066 29.4127 14.5066 29.3929 14.1584 29.3929C13.965 29.3929 13.5781 29.631 13.3074 29.9285Z" fill="#387ADF"/>
<path d="M24.5644 29.8293C25.0093 30.3253 25.222 30.9601 25.106 31.5155C25.0093 32.071 23.8681 32.1107 23.1718 31.5751L22.6302 31.1585V31.5751C22.6302 32.1702 23.4232 32.8844 24.371 33.1819C25.0673 33.4001 25.2607 33.3803 25.7056 33.1423C26.9628 32.4281 26.015 29.3929 24.5257 29.3929C24.1776 29.3929 24.1776 29.4127 24.5644 29.8293Z" fill="#387ADF"/>
<path d="M20.5026 32.4678C20.5026 33.2613 19.9223 34.154 19.4001 34.154C18.9165 34.154 18.1815 33.1621 18.1815 32.4876C18.1815 32.1901 18.1235 32.1702 17.8914 32.3686C17.3305 32.8447 17.6206 34.4119 18.4136 35.2848C19.1873 36.1378 20.4252 35.7014 20.8894 34.4317C21.1796 33.6779 21.1215 32.448 20.7927 32.1702C20.5413 31.952 20.5026 32.0115 20.5026 32.4678Z" fill="#387ADF"/>
<path d="M4.37132 32.9439C3.23014 33.7175 2.7079 35.3244 3.40422 36.0187C4.00382 36.6337 6.38289 36.2965 6.76973 35.5426C7.09855 34.9276 6.98249 34.7491 6.28618 34.7491C5.47381 34.7491 5.26105 34.3722 5.57052 33.4993C5.7446 33.0232 5.7446 32.8447 5.55118 32.7256C5.20303 32.4876 4.99026 32.5273 4.37132 32.9439Z" fill="#387ADF"/>
<path d="M33.1329 32.686C32.9589 32.7653 32.9782 32.9637 33.2297 33.4993C33.5391 34.154 33.5391 34.2135 33.1716 34.4714C32.9782 34.6301 32.6107 34.7491 32.3593 34.7491C31.6823 34.7491 31.779 35.4633 32.5527 35.9394C33.4231 36.4949 34.8737 36.475 35.4153 35.9196C36.1116 35.2054 35.5894 33.7176 34.3708 32.9637C33.7519 32.567 33.5391 32.5273 33.1329 32.686Z" fill="#387ADF"/>
<path d="M27.6591 32.8447C27.6591 32.8843 27.7945 33.2414 27.9492 33.6183C28.4521 34.8483 27.8525 35.4038 26.6146 34.8681C25.9957 34.6102 25.9183 34.6102 25.9183 34.8681C25.9183 35.4434 26.3245 35.9394 27.0789 36.3361C28.5295 37.09 29.7867 36.6932 29.7867 35.4831C29.7867 34.6102 29.2258 33.4596 28.6456 33.1026C28.1233 32.7851 27.6591 32.6661 27.6591 32.8447Z" fill="#387ADF"/>
<path d="M9.76779 33.4795C9.09081 34.2334 8.80068 35.4038 9.1295 36.0981C9.40029 36.6536 10.2127 36.8916 11.1411 36.6536C11.7794 36.4751 12.7658 35.5625 12.7658 35.1261C12.7658 34.6896 12.7658 34.6896 12.0695 34.9674C11.76 35.0666 11.3151 35.1062 11.0637 35.0467C10.6575 34.9475 10.6188 34.8285 10.6769 34.2929C10.7349 33.9358 10.8316 33.4994 10.9283 33.301C11.1604 32.7455 10.3094 32.8844 9.76779 33.4795Z" fill="#387ADF"/>
<path d="M14.9127 36.6139C14.2744 37.3875 14.5259 39.4308 15.3382 40.0061C15.9378 40.4227 16.3247 40.3831 17.0403 39.7681C17.7753 39.1134 18.2395 38.1017 18.0655 37.4272C17.9107 36.7924 17.7367 36.7924 17.4078 37.4272C17.0984 38.0025 16.3634 38.2802 15.9765 37.943C15.8218 37.8041 15.6477 37.4074 15.5897 37.0305C15.4543 36.2766 15.2609 36.1774 14.9127 36.6139Z" fill="#387ADF"/>
<path d="M23.2104 36.7329C23.2104 38.0819 22.1853 38.558 21.4503 37.5264C20.9474 36.8321 20.696 36.9114 20.696 37.7843C20.696 39.0539 22.0886 40.4823 23.0944 40.2244C24.0422 39.9863 24.545 37.7645 23.8681 36.7726C23.5006 36.2369 23.2104 36.2171 23.2104 36.7329Z" fill="#387ADF"/>
<path d="M10.0773 39.2523C9.11016 40.0657 9.16818 42.5454 10.174 42.8033C11.3345 43.1009 12.9592 41.8709 12.9592 40.7005C12.9592 40.1649 12.9012 40.0855 12.6304 40.2244C12.437 40.3037 12.0308 40.3831 11.702 40.3831C11.1604 40.4029 11.1217 40.3434 11.0637 39.6491C10.9863 38.8357 10.7155 38.7167 10.0773 39.2523Z" fill="#387ADF"/>
<path d="M27.8525 39.3118C27.8525 40.3831 27.1756 40.7798 26.3825 40.2045C25.899 39.8673 25.7249 39.9863 25.7249 40.7005C25.7249 42.3074 28.3554 43.5968 29.1291 42.3867C29.7481 41.4345 29.1098 39.1333 28.162 38.9547C27.9492 38.9151 27.8525 39.0143 27.8525 39.3118Z" fill="#387ADF"/>
<path d="M17.9107 41.9106C17.5432 42.4462 17.5239 43.0215 17.814 43.815C18.7037 46.2353 21.0828 45.4219 21.0828 42.6843C21.0828 42.109 20.9861 41.8511 20.7153 41.6924C20.4058 41.5337 20.3091 41.5734 20.2124 41.8908C20.1544 42.109 19.9029 42.3867 19.6708 42.5057C19.3227 42.7041 19.2066 42.6644 18.7424 42.109L18.2202 41.4543L17.9107 41.9106Z" fill="#387ADF"/>
<path d="M12.0694 43.6762L11.0636 44.2118L15.0481 46.5725C17.2337 47.862 19.1292 48.9531 19.2646 48.9927C19.4 49.0324 21.3536 47.9612 23.5972 46.632L27.6784 44.2118L26.5372 43.6365L25.4154 43.0612L23.4812 44.192C22.4367 44.8069 21.3922 45.4814 21.1795 45.6798C20.9667 45.8782 20.4638 46.1758 20.077 46.3345C19.2646 46.6915 18.8778 46.5725 17.5045 45.6401C16.3053 44.8069 13.346 43.081 13.1912 43.1009C13.1139 43.1207 12.611 43.3786 12.0694 43.6762Z" fill="#387ADF"/>
<path d="M128.141 46.9891C127.522 47.1478 126.884 47.862 126.884 48.4174C126.903 49.1514 127.213 49.4887 128.547 50.183C129.862 50.8575 130.056 51.1352 129.708 51.8296C129.418 52.4247 128.238 52.5834 127.541 52.1073C127.077 51.8097 126.69 51.8494 126.69 52.2065C126.69 52.5437 127.832 53 128.683 53C129.63 53 130.288 52.5239 130.481 51.6907C130.694 50.8377 130.269 50.2624 128.934 49.6077C127.599 48.9531 127.348 48.6357 127.657 48.0207C127.928 47.5049 128.702 47.3462 129.418 47.6438C130.288 48.0207 130.578 47.5842 129.727 47.1677C129.031 46.8502 128.837 46.8304 128.141 46.9891Z" fill="#387ADF"/>
<path d="M116.632 50.0243C116.632 52.8611 116.652 53 117.019 53C117.348 53 117.406 52.8611 117.406 51.9486C117.426 51.1352 117.522 50.798 117.909 50.3417C118.277 49.9251 118.451 49.8259 118.567 50.0045C118.644 50.1433 119.05 50.8773 119.456 51.6312C119.959 52.5437 120.327 53 120.559 53C120.868 53 120.83 52.8611 120.288 51.8494C119.94 51.2344 119.456 50.4012 119.224 50.0045L118.799 49.2903L119.669 48.1794C120.365 47.2668 120.462 47.0486 120.172 47.0486C119.979 47.0486 119.34 47.6636 118.663 48.5365L117.503 50.0243L117.445 48.5365C117.387 47.2073 117.348 47.0486 117.019 47.0486C116.652 47.0486 116.632 47.2073 116.632 50.0243Z" fill="#387ADF"/>
<path d="M121.855 50.0243C121.855 52.4842 121.894 53 122.145 53C122.338 53 122.435 52.6826 122.474 51.7502C122.532 50.5401 122.532 50.5203 123.131 50.4607C123.712 50.4012 123.789 50.4806 124.447 51.6907C124.93 52.5834 125.278 53 125.53 53C125.839 53 125.801 52.8215 125.124 51.6709C124.427 50.4211 124.389 50.3219 124.737 50.183C125.743 49.8061 126.013 48.3381 125.24 47.5446C124.834 47.1081 124.601 47.0486 123.305 47.0486H121.855V50.0243ZM124.795 48.0405C125.51 48.9531 124.814 49.8259 123.364 49.8259H122.435V48.7745C122.435 48.1794 122.493 47.6438 122.59 47.5644C122.88 47.247 124.447 47.5842 124.795 48.0405Z" fill="#387ADF"/>
<path d="M51.063 49.9251C51.063 50.183 54.6993 50.2227 82.6872 50.2227C110.675 50.2227 114.311 50.183 114.311 49.9251C114.311 49.6672 110.675 49.6275 82.6872 49.6275C54.6993 49.6275 51.063 49.6672 51.063 49.9251Z" fill="#387ADF"/>
<path d="M132.88 49.9251C132.88 50.183 136.535 50.2227 164.601 50.2227C192.666 50.2227 196.322 50.183 196.322 49.9251C196.322 49.6672 192.666 49.6275 164.601 49.6275C136.535 49.6275 132.88 49.6672 132.88 49.9251Z" fill="#387ADF"/>
</svg>
