<svg width="1035" height="267" viewBox="0 0 1035 267" fill="none" xmlns="http://www.w3.org/2000/svg">
<path d="M464 8.9C464 18.9 463.6 18.3 472.3 19.6L477 20.2V79.5V138.8L472.3 139.4C463.6 140.7 464 140.1 464 150.1V159H489.5H515V150.1C515 140.2 515.3 140.5 507 139.4L502 138.7V69.4V-2.36928e-06H483H464V8.9Z" fill="#ECECEC"/>
<path d="M244 19.4V28.8L246.8 29.4C248.3 29.7 251.2 30.2 253.3 30.6L257 31.2V85V138.8L252.3 139.4C243.6 140.7 244 140.1 244 150.1V159H269.5H295V150.1C295 140.2 295.3 140.5 287 139.4L282 138.7V116.9C282 104.8 282.3 95 282.8 95C283.2 95.1 295.2 109.5 309.5 127L335.5 158.9L350.3 159H365.1L364.8 149.7L364.5 140.5L358.2 139.7L351.9 138.8L328.3 111.7C315.4 96.7 304.6 83.9 304.3 83.3C303.9 82.3 351 32.1 353 31.3C353.3 31.2 356.1 30.6 359.3 30L365 28.9V19.4V10H337.5H310V19.4V28.9L315.5 30L321.1 31.2L316 36.8C313.3 39.9 304.5 49.2 296.6 57.5L282.1 72.5L282 51.9V31.2L285.8 30.6C287.8 30.2 290.7 29.7 292.3 29.4L295 28.8V19.4V10H269.5H244V19.4Z" fill="#ECECEC"/>
<path d="M390.3 54.8C383.6 57.2 379 60.8 375.2 66.6C370.5 73.6 369.8 79.3 370.2 104.9C370.6 124.7 370.9 128.1 372.6 132.6C377.4 144.4 386.3 153.1 397.7 156.9C403.3 158.8 406.3 159 426.5 159H449V147.5V136H427.3C407.2 136 405.2 135.8 402.2 134C399.1 132.1 394.1 123.6 395.3 122.4C395.5 122.1 404.3 119.8 414.7 117.2C435.6 112 441.8 109 447.2 101.6C455.9 89.6 454 69.9 443.2 61C435.1 54.4 432.2 53.6 413 53.3C398 53 394.7 53.2 390.3 54.8ZM425.5 78.5C428.6 81.5 428.7 85.1 425.8 88.5C424 90.5 420.7 91.7 410 94.5C402.6 96.4 396.1 98 395.7 98C395.2 98 395 93.9 395.2 88.9C395.6 76.5 396.2 76 411.7 76C422.5 76 423.2 76.1 425.5 78.5Z" fill="#ECECEC"/>
<path d="M513 62.4V71.9L518.3 72.5C521.3 72.9 524.2 73.5 524.8 73.9C525.5 74.3 526 84.4 526.2 105.5C526.5 134.6 526.6 136.8 528.6 141.1C531.7 147.7 536.4 152.5 542.8 155.7C548.2 158.3 549.2 158.5 562 158.5C574.8 158.5 575.8 158.3 580.7 155.8L585.9 153L588 156L590.1 159H606.1H622V150.1C622 140.1 622.4 140.7 613.8 139.4L609 138.8V106.5V74.2L614 73.1C616.8 72.5 619.8 72 620.5 72C621.7 72 622 70.1 622 62.5V53H596.5H571V62.5C571 70.1 571.3 72 572.5 72C573.2 72 576.2 72.5 579 73.1L584.1 74.2L583.8 99.9L583.5 125.7L580.7 129.3C576.6 134.7 573.4 136 564.3 136C550.9 135.9 551 136.1 551 101.6V74.2L553.8 73.6C555.3 73.3 558.2 72.8 560.3 72.4L564 71.8V62.4V53H538.5H513V62.4Z" fill="#ECECEC"/>
<path d="M642 70.9V89H650.9C660.9 89 660.3 89.4 661.6 80.7L662.2 76H673.6C684 76 685.1 76.2 687.6 78.3C689.6 80.1 690.4 81.8 690.7 85.7L691.2 90.7L672.5 95.4C647.5 101.6 642.4 104.4 636.4 115.2C633.8 120 633.5 121.4 633.5 129.5C633.5 137.4 633.9 139.2 636.3 144.3C639.5 150.7 643.5 154.2 651 157.1C655.6 158.8 658.9 159 692 159H728.1L727.8 149.7L727.5 140.5L721.8 139.6L716.2 138.8L715.8 107.6C715.5 78.2 715.4 76.2 713.3 71.8C709.7 63.9 706.2 60.2 699.2 56.8L692.6 53.5L667.3 53.2L642 52.9V70.9ZM691 125V136H677.6C670.2 136 663.4 135.7 662.5 135.4C660.6 134.6 658 129.9 658 127.1C658 122.6 661.9 120.2 674.5 117.1C692.5 112.7 691 112 691 125Z" fill="#ECECEC"/>
<path d="M738 62.4V71.9L742.8 72.6C751.7 73.9 751.1 71 750.8 106.8L750.5 138.5L744.5 139.5L738.5 140.6L738.2 149.8L737.9 159H763H788.1L787.8 149.8L787.5 140.6L781.5 139.5L775.5 138.5V113.5C775.5 90.2 775.6 88.2 777.6 84.5C780.3 79.1 786.4 76 794.1 76H799.8L800.4 80.7C801.7 89.4 801.1 89 811.1 89H820V70.9V52.8L802.8 53.2C786.3 53.5 785.2 53.6 779.5 56.3L773.6 59.1L771.8 56.8C770.8 55.5 770 54.2 770 53.7C770 53.3 762.8 53 754 53H738V62.4Z" fill="#ECECEC"/>
<path d="M851.2 54.9C844.2 57.3 839.4 61.4 835.6 68L832.5 73.5V101.5V129.5L835.6 136C840.9 147.2 847.5 153.1 858.8 156.9C863.7 158.6 867.5 159 877 159H889V166.4C889 172.3 888.6 174.3 886.8 177C881.6 184.5 877.2 185.9 858.3 186H845V197V208H862C876.5 208 880 207.7 885.1 206C896.8 202 904.9 194.7 910.3 183.2L913.5 176.5L913.8 125.3L914.1 74.1L916.8 73.6C918.3 73.3 921.2 72.8 923.3 72.4L927 71.8V62.4V53H891.8C860.2 53.1 855.9 53.3 851.2 54.9ZM889 106V136H877.9C868.5 136 866.2 135.7 863.5 134C857.5 130.3 857 127.8 857 102.9C857 74.2 855.8 76 875.2 76H889V106Z" fill="#ECECEC"/>
<path d="M947 70.9V89H956.4H965.8L966.4 84.2C967.7 75.4 966.8 76 979.6 76C990.5 76 991.2 76.1 993.5 78.5C995.5 80.4 996 81.9 996 85.8V90.8L977.3 95.4C957.5 100.4 952.9 102.4 946.8 108.7C941.2 114.5 938.8 120.9 938.9 129.6C939 139.8 941.8 146.8 947.7 152C955.4 158.7 957.5 159 998.2 159H1034V150C1034 140 1034.8 141 1025.5 139.2L1021.5 138.4L1021 107L1020.5 75.5L1017.7 69.8C1014.5 63.4 1009.7 58.7 1003.1 55.6C998.9 53.7 996.4 53.5 972.8 53.2L947 52.9V70.9ZM996 125V136H982.6C970 136 968.9 135.8 966.6 133.7C963.8 131.3 963.2 128.9 964.3 124.8C965.3 121.2 967.4 120.1 980.5 116.9C997.4 112.8 996 112 996 125Z" fill="#ECECEC"/>
<path d="M77.8 28.3L57.1 40.4L63 43.3L68.9 46.2L77.2 41.4C81.8 38.8 87.5 35.2 90 33.5C96.5 28.9 99.7 28 104 29.8C105.9 30.6 108.3 31.9 109.4 32.8C110.4 33.8 116 37.3 121.9 40.7C131.7 46.3 132.6 46.7 134.3 45.2C135.3 44.4 137.6 42.9 139.6 42.1L143.1 40.5L122.3 28.5C110.9 21.9 100.9 16.4 100 16.3C99.2 16.2 89.2 21.6 77.8 28.3Z" fill="#ECECEC"/>
<path d="M95.2 37.3C91.2 41.6 89.8 49.7 92.6 52.5C94.1 54 94.5 53.9 97.1 50.8L100 47.5L103 50.8C105.5 53.5 106.4 53.9 107.6 53C109.3 51.5 109.5 44.8 107.9 41.7C104.4 34.9 99.1 33.1 95.2 37.3Z" fill="#ECECEC"/>
<path d="M50.5 48.9999C47.8 51.8999 47.9 60.0999 50.7 63.7999C53.5 67.4999 57 67.9999 57 64.6999C57 59.0999 59.6 57.4999 63.6 60.4999C66.4 62.5999 67 62.2999 67 58.5999C67 54.5999 64.2 50.7999 59.6 48.5999C55.1 46.4999 52.7 46.5999 50.5 48.9999Z" fill="#ECECEC"/>
<path d="M139.9 49.1001C136 51.4001 133 55.6001 133 58.7001C133 61.6001 134 62.1001 136.4 60.5001C140.5 57.6001 144 59.6001 144 64.9001C144 67.7001 146.2 67.5001 149.1 64.4001C151.1 62.3001 151.5 60.8001 151.5 55.8001C151.5 51.1001 151.1 49.6001 149.6 48.4001C146.9 46.5001 144.1 46.7001 139.9 49.1001Z" fill="#ECECEC"/>
<path d="M21.8 60.8L0 73.5V98.9V124.4L2.8 121.8C4.3 120.4 6.5 118.7 7.8 118.1C10 117 10 116.6 10 99V81L12.8 78.5C14.4 77.1 19.4 74 24.1 71.7C28.7 69.3 34.7 66 37.5 64.4C42.2 61.5 42.4 61.2 42.2 57.4C42 55.2 42.3 52.2 42.9 50.7C43.5 49.2 43.8 48 43.7 48.1C43.6 48.1 33.7 53.8 21.8 60.8Z" fill="#ECECEC"/>
<path d="M157.8 55.3L158.2 61.5L168.8 67.6C174.7 71 180.9 74.3 182.7 74.9C184.4 75.6 186.8 77.2 188 78.5C190.2 80.9 190.3 81.5 190.1 99C189.9 115.5 190.1 117.1 191.7 117.7C192.7 118 195 119.4 196.8 120.7L200 123.1V98.3V73.4L179.3 61.5C167.9 54.9 158.4 49.4 158.1 49.2C157.7 49.1 157.6 51.8 157.8 55.3Z" fill="#ECECEC"/>
<path d="M78.8 61.7C75.1 65.7 74 72.5 76.3 76.9C78.1 80.5 79.7 80.5 80.4 76.9C81.7 70.3 85.3 69.2 89.3 74C90.7 75.6 92.1 77 92.3 77C93.6 77 93.9 73.4 92.9 69.9C90.7 62.6 82.4 57.7 78.8 61.7Z" fill="#ECECEC"/>
<path d="M113.8 61.5C110.4 63.4 107 69 107 72.8C107 77.1 108.3 77.4 110.9 74C114.5 69.1 118.3 70.4 119.6 76.8C120.4 80.6 121.3 80.8 123.4 77.8C127.2 72.4 123.5 59.9 118.2 60C117.3 60.1 115.3 60.7 113.8 61.5Z" fill="#ECECEC"/>
<path d="M49.9 78.3C48.6 79 47.2 81 46.7 82.7C45.4 87 49.3 95.1 53.2 96.4C56.7 97.6 57.4 96.9 55.9 93.7C55.3 92.3 55.1 89.9 55.4 88.5C56 86.1 56.5 85.8 59.3 86.3C61.1 86.6 63.3 87.1 64.3 87.5C65.6 88 66 87.7 66 86.2C66 83.8 60.9 79.2 57.2 78.4C55.7 78.1 54 77.7 53.4 77.5C52.8 77.3 51.2 77.7 49.9 78.3Z" fill="#ECECEC"/>
<path d="M142.5 78.5C138.3 80 134 84.1 134 86.7C134 87.7 134.5 88 135.8 87.5C143.5 84.5 146.8 86.6 144.5 93.3C143.3 96.7 143.4 97 145.2 97C148.1 97 152.8 91.8 153.5 87.7C154.6 82.2 153.5 79.4 149.9 78.1C148.1 77.5 146.7 77 146.6 77C146.5 77.1 144.7 77.7 142.5 78.5Z" fill="#ECECEC"/>
<path d="M17.7 81.8C14.2 85.7 16.6 93.6 22.3 97C24.1 98.1 26.3 99 27.2 99C29.4 99 30.5 97.1 29.1 95.7C27.4 94 27.8 89.3 29.6 88.6C30.5 88.3 32.3 88 33.6 88C36.2 88 36.6 86.9 35 84C32.9 80 20.7 78.5 17.7 81.8Z" fill="#ECECEC"/>
<path d="M168.3 82C164.3 84.4 163.8 88 167.3 88C168.6 88 170.5 88.6 171.5 89.4C173.4 90.7 173.4 91 171.8 94.4C170.1 97.8 170.2 97.9 172.1 98.5C174.5 99.3 179.6 96.5 182.3 92.7C185 89.2 185.1 83.3 182.5 81.4C179.7 79.3 172.1 79.7 168.3 82Z" fill="#ECECEC"/>
<path d="M94.6 86C91.6 89.6 90.3 96.8 92.1 100.1C93.3 102.4 93.3 102.3 94.6 98.2C95.2 95.8 96.4 93.3 97 92.5C100 88.9 104.7 92.2 105.7 98.4C106.2 101.3 106.5 101.8 107.6 100.9C108.4 100.3 109 98 109 95.9C109 84.9 100.5 79 94.6 86Z" fill="#ECECEC"/>
<path d="M67.2 96.2C64.5 97.6 63.5 100.8 64.5 105.7C65.3 109.9 69.9 115 72.9 115C74.9 115 74.9 114.9 72.5 111.4C69.9 107.6 69.6 106.2 70.6 103.6C71.5 101.3 77.2 101.6 80.4 104.1C83.7 106.7 85 105.8 83 102.2C80.2 97.4 71.6 94.1 67.2 96.2Z" fill="#ECECEC"/>
<path d="M124.3 96.5C120.1 98.3 117 101.5 117 104.1V106.1L119.6 104.1C122.4 101.9 128.4 101.3 129.5 103.1C130.6 104.8 129.1 110.5 126.9 112.8C125.1 114.8 125 115 126.7 115C133.9 115 139.5 100.5 133.8 96.6C131.1 94.7 128.5 94.6 124.3 96.5Z" fill="#ECECEC"/>
<path d="M36.2 107C31.8 108 29 110.7 29 114C29 119.3 35.7 125 41.9 125C46.1 125 46.4 123.7 43 121.1C37.7 117.3 39.7 112 46.4 112C49.4 112 49.7 110.9 47.3 108.8C45 106.8 40.4 106.1 36.2 107Z" fill="#ECECEC"/>
<path d="M152.8 109.2L150.5 111.5L154 111.8C157.4 112.1 161 114.4 161 116.2C161 116.7 159.6 118.5 158 120.2C154.7 123.5 154.9 125 158.6 125C164.3 125 171 119.2 171 114.4C171 109.6 167.2 107 160.4 107C156.1 107 154.5 107.5 152.8 109.2Z" fill="#ECECEC"/>
<path d="M11.6 123.5C7.2 125 4.5 127.4 3.6 130.6C2 135.8 13 142.5 19.2 140.1C23.1 138.6 23.2 137.6 20 135.1C16.3 132.4 16.2 130.7 19.6 128.1C22.3 126 22.3 123 19.6 123C18.8 123 17.6 122.8 16.8 122.5C16.1 122.3 13.7 122.7 11.6 123.5Z" fill="#ECECEC"/>
<path d="M58.4 123.9C54.4 125.7 51 129.3 51 131.6C51 132.3 52.1 134.2 53.5 135.8C56.6 139.5 63.3 141.6 67.3 140.1C70.8 138.8 70.8 137.5 67.3 137.2C64.4 137 59.9 134.2 59.2 132.2C58.5 130.1 63.7 126 67 126C70.7 126 70.9 124.3 67.4 123C64 121.7 63.2 121.7 58.4 123.9Z" fill="#ECECEC"/>
<path d="M131.9 123.9L129.5 125.9L132.7 126C137 126 141.5 129.9 140.6 132.7C139.9 134.9 136 137 132.2 137.3C129.2 137.5 129.9 139.1 133.4 140.3C137.1 141.5 143.4 139.7 146.6 136.5C152 131.1 147.9 124.9 137.4 122.6C135.1 122.1 133.7 122.4 131.9 123.9Z" fill="#ECECEC"/>
<path d="M180.3 123.5C177.4 125.6 177.4 126.4 180.5 127.8C182.2 128.6 183 129.8 183 131.5C183 133.2 182.2 134.4 180.5 135.2C177.2 136.7 177.3 138.5 180.9 139.9C186.7 142.4 197 137.1 197 131.6C197 125.7 185.2 120.1 180.3 123.5Z" fill="#ECECEC"/>
<path d="M35.5 140.4C28.5 144.6 27.1 150.5 32.1 154.3C35.6 156.9 44.3 157 47 154.5C49.9 151.9 49.5 151 45.6 151C43.8 151 41.7 150.3 41 149.5C39.3 147.4 40.6 143.3 43.6 141.4C45.5 140.1 45.8 139.5 44.8 138.9C42.6 137.4 39.7 137.9 35.5 140.4Z" fill="#ECECEC"/>
<path d="M155.6 138.8C155.3 139.4 156.3 141.2 158 142.8C159.6 144.5 161 146.3 161 146.9C161 148.6 156.7 151 153.8 151C152.2 151 151 151.4 151 151.9C151 154.1 155.6 156 160.8 156C165.4 156 166.6 155.6 169.1 153.1C170.7 151.5 172 149.8 172 149.3C172 147.6 168 142 165.7 140.5C162.6 138.5 156.5 137.4 155.6 138.8Z" fill="#ECECEC"/>
<path d="M0 164.1V189.6L17.2 199.5C26.7 205 36.6 210.7 39.2 212.2L43.9 215L42.8 212C42.3 210.3 42 207.4 42.2 205.4L42.6 201.9L31.3 195.5C25.1 191.9 19.7 189 19.2 189C18.7 189 16.4 187.6 14.2 186L10 183V164.5V146.1L6.5 144.4C4.5 143.5 2.3 141.8 1.5 140.6C0.2 138.8 0 141.4 0 164.1Z" fill="#ECECEC"/>
<path d="M197.6 141.9C196.6 143 194.5 144.4 192.9 145.1L189.9 146.3L190.1 164.1C190.4 181.5 190.4 182 188.1 184.4C186.8 185.7 184.4 187.4 182.7 188.1C180.9 188.8 174.7 192 168.8 195.4L158.2 201.5L157.8 207.8C157.6 211.2 157.6 214 157.8 214C158 214 167.5 208.6 179 201.9L200 189.8V164.9C200 151.2 199.8 140 199.7 140C199.5 140 198.5 140.9 197.6 141.9Z" fill="#ECECEC"/>
<path d="M68.8 150.7C63.4 156.3 62.4 163.9 66.6 166.7C68.9 168.1 69.8 168.2 73.9 167.2C78.5 166 84 161.3 84 158.6C84 157.7 82.6 158 79.1 159.7C75 161.8 73.8 162 72 161C70.2 160 69.9 159.2 70.4 156.7C70.7 154.9 71.9 152.3 73 150.7C75 148.1 75 148 73.2 148C72.2 148 70.2 149.2 68.8 150.7Z" fill="#ECECEC"/>
<path d="M127 150.2C129.3 152.7 130.4 155.9 129.8 158.7C129.3 161.5 123.4 161.7 119.8 159L117 156.9V159C117 162 121.1 165.6 126 167.1C129.6 168.2 130.6 168.1 132.9 166.9C139.4 163.3 134.5 148 126.8 148C125 148 125 148.1 127 150.2Z" fill="#ECECEC"/>
<path d="M106 163.5C106 167.5 103 172 100.3 172C97.8 172 94 167 94 163.6C94 162.1 93.7 162 92.5 163C89.6 165.4 91.1 173.3 95.2 177.7C99.2 182 105.6 179.8 108 173.4C109.5 169.6 109.2 163.4 107.5 162C106.2 160.9 106 161.2 106 163.5Z" fill="#ECECEC"/>
<path d="M22.6 165.9C16.7 169.8 14 177.9 17.6 181.4C20.7 184.5 33 182.8 35 179C36.7 175.9 36.1 175 32.5 175C28.3 175 27.2 173.1 28.8 168.7C29.7 166.3 29.7 165.4 28.7 164.8C26.9 163.6 25.8 163.8 22.6 165.9Z" fill="#ECECEC"/>
<path d="M171.3 164.6C170.4 165 170.5 166 171.8 168.7C173.4 172 173.4 172.3 171.5 173.6C170.5 174.4 168.6 175 167.3 175C163.8 175 164.3 178.6 168.3 181C172.8 183.8 180.3 183.7 183.1 180.9C186.7 177.3 184 169.8 177.7 166C174.5 164 173.4 163.8 171.3 164.6Z" fill="#ECECEC"/>
<path d="M143 165.4C143 165.6 143.7 167.4 144.5 169.3C147.1 175.5 144 178.3 137.6 175.6C134.4 174.3 134 174.3 134 175.6C134 178.5 136.1 181 140 183C147.5 186.8 154 184.8 154 178.7C154 174.3 151.1 168.5 148.1 166.7C145.4 165.1 143 164.5 143 165.4Z" fill="#ECECEC"/>
<path d="M50.5 168.6C47 172.4 45.5 178.3 47.2 181.8C48.6 184.6 52.8 185.8 57.6 184.6C60.9 183.7 66 179.1 66 176.9C66 174.7 66 174.7 62.4 176.1C60.8 176.6 58.5 176.8 57.2 176.5C55.1 176 54.9 175.4 55.2 172.7C55.5 170.9 56 168.7 56.5 167.7C57.7 164.9 53.3 165.6 50.5 168.6Z" fill="#ECECEC"/>
<path d="M77.1 184.4C73.8 188.3 75.1 198.6 79.3 201.5C82.4 203.6 84.4 203.4 88.1 200.3C91.9 197 94.3 191.9 93.4 188.5C92.6 185.3 91.7 185.3 90 188.5C88.4 191.4 84.6 192.8 82.6 191.1C81.8 190.4 80.9 188.4 80.6 186.5C79.9 182.7 78.9 182.2 77.1 184.4Z" fill="#ECECEC"/>
<path d="M120 185C120 191.8 114.7 194.2 110.9 189C108.3 185.5 107 185.9 107 190.3C107 196.7 114.2 203.9 119.4 202.6C124.3 201.4 126.9 190.2 123.4 185.2C121.5 182.5 120 182.4 120 185Z" fill="#ECECEC"/>
<path d="M52.1 197.7C47.1 201.8 47.4 214.3 52.6 215.6C58.6 217.1 67 210.9 67 205C67 202.3 66.7 201.9 65.3 202.6C64.3 203 62.2 203.4 60.5 203.4C57.7 203.5 57.5 203.2 57.2 199.7C56.8 195.6 55.4 195 52.1 197.7Z" fill="#ECECEC"/>
<path d="M144 198C144 203.4 140.5 205.4 136.4 202.5C133.9 200.8 133 201.4 133 205C133 213.1 146.6 219.6 150.6 213.5C153.8 208.7 150.5 197.1 145.6 196.2C144.5 196 144 196.5 144 198Z" fill="#ECECEC"/>
<path d="M92.6 211.1C90.7 213.8 90.6 216.7 92.1 220.7C96.7 232.9 109 228.8 109 215C109 212.1 108.5 210.8 107.1 210C105.5 209.2 105 209.4 104.5 211C104.2 212.1 102.9 213.5 101.7 214.1C99.9 215.1 99.3 214.9 96.9 212.1L94.2 208.8L92.6 211.1Z" fill="#ECECEC"/>
<path d="M62.4 220L57.2 222.7L77.8 234.6C89.1 241.1 98.9 246.6 99.6 246.8C100.3 247 110.4 241.6 122 234.9L143.1 222.7L137.2 219.8L131.4 216.9L121.4 222.6C116 225.7 110.6 229.1 109.5 230.1C108.4 231.1 105.8 232.6 103.8 233.4C99.6 235.2 97.6 234.6 90.5 229.9C84.3 225.7 69 217 68.2 217.1C67.8 217.2 65.2 218.5 62.4 220Z" fill="#ECECEC"/>
<path d="M662.5 236.7C659.3 237.5 656 241.1 656 243.9C656.1 247.6 657.7 249.3 664.6 252.8C671.4 256.2 672.4 257.6 670.6 261.1C669.1 264.1 663 264.9 659.4 262.5C657 261 655 261.2 655 263C655 264.7 660.9 267 665.3 267C670.2 267 673.6 264.6 674.6 260.4C675.7 256.1 673.5 253.2 666.6 249.9C659.7 246.6 658.4 245 660 241.9C661.4 239.3 665.4 238.5 669.1 240C673.6 241.9 675.1 239.7 670.7 237.6C667.1 236 666.1 235.9 662.5 236.7Z" fill="#ECECEC"/>
<path d="M603 252C603 266.3 603.1 267 605 267C606.7 267 607 266.3 607 261.7C607.1 257.6 607.6 255.9 609.6 253.6C611.5 251.5 612.4 251 613 251.9C613.4 252.6 615.5 256.3 617.6 260.1C620.2 264.7 622.1 267 623.3 267C624.9 267 624.7 266.3 621.9 261.2C620.1 258.1 617.6 253.9 616.4 251.9L614.2 248.3L618.7 242.7C622.3 238.1 622.8 237 621.3 237C620.3 237 617 240.1 613.5 244.5L607.5 252L607.2 244.5C606.9 237.8 606.7 237 605 237C603.1 237 603 237.8 603 252Z" fill="#ECECEC"/>
<path d="M630 252C630 264.4 630.2 267 631.5 267C632.5 267 633 265.4 633.2 260.7C633.5 254.6 633.5 254.5 636.6 254.2C639.6 253.9 640 254.3 643.4 260.4C645.9 264.9 647.7 267 649 267C650.6 267 650.4 266.1 646.9 260.3C643.3 254 643.1 253.5 644.9 252.8C650.1 250.9 651.5 243.5 647.5 239.5C645.4 237.3 644.2 237 637.5 237H630V252ZM645.2 242C648.9 246.6 645.3 251 637.8 251H633V245.7C633 242.7 633.3 240 633.8 239.6C635.3 238 643.4 239.7 645.2 242Z" fill="#ECECEC"/>
<path d="M264 251.5C264 252.8 282.8 253 427.5 253C572.2 253 591 252.8 591 251.5C591 250.2 572.2 250 427.5 250C282.8 250 264 250.2 264 251.5Z" fill="#ECECEC"/>
<path d="M687 251.5C687 252.8 705.9 253 851 253C996.1 253 1015 252.8 1015 251.5C1015 250.2 996.1 250 851 250C705.9 250 687 250.2 687 251.5Z" fill="#ECECEC"/>
</svg>
