<svg width="270" height="282" viewBox="0 0 270 282" fill="none" xmlns="http://www.w3.org/2000/svg">
<path d="M105.03 15.1629L77.085 29.9393L85.05 33.4808L93.015 37.0222L104.22 31.1605C110.43 27.9854 118.125 23.5891 121.5 21.5131C130.275 15.8956 134.595 14.7965 140.4 16.9947C142.965 17.9716 146.205 19.5592 147.69 20.6582C149.04 21.8794 156.6 26.1536 164.565 30.3057C177.795 37.1443 179.01 37.6328 181.305 35.801C182.655 34.8241 185.76 32.9923 188.46 32.0153L193.185 30.0614L165.105 15.4071C149.715 7.34724 136.215 0.630685 135 0.508566C133.92 0.386447 120.42 6.98089 105.03 15.1629Z" fill="#ECECEC"/>
<path d="M128.52 26.1536C123.12 31.4047 121.23 41.2964 125.01 44.7157C127.035 46.5475 127.575 46.4254 131.085 42.6397L135 38.6098L139.05 42.6397C142.425 45.9369 143.64 46.4254 145.26 45.3263C147.555 43.4945 147.825 35.3125 145.665 31.5268C140.94 23.2227 133.785 21.0246 128.52 26.1536Z" fill="#ECECEC"/>
<path d="M68.175 40.4415C64.53 43.9829 64.665 53.9967 68.445 58.5151C72.225 63.0335 76.95 63.6441 76.95 59.6142C76.95 52.7755 80.46 50.8216 85.86 54.4852C89.64 57.0497 90.45 56.6833 90.45 52.1649C90.45 47.2801 86.67 42.6396 80.46 39.953C74.385 37.3885 71.145 37.5106 68.175 40.4415Z" fill="#ECECEC"/>
<path d="M188.865 40.5637C183.6 43.3725 179.55 48.5015 179.55 52.2872C179.55 55.8286 180.9 56.4392 184.14 54.4853C189.675 50.9439 194.4 53.3862 194.4 59.8586C194.4 63.2779 197.37 63.0337 201.285 59.248C203.985 56.6835 204.525 54.8517 204.525 48.7457C204.525 43.0061 203.985 41.1743 201.96 39.7089C198.315 37.3886 194.535 37.6329 188.865 40.5637Z" fill="#ECECEC"/>
<path d="M29.43 54.8517L0 70.3608V101.379V132.52L3.78 129.344C5.805 127.635 8.775 125.559 10.53 124.826C13.5 123.483 13.5 122.994 13.5 101.501V79.5198L17.28 76.4668C19.44 74.7571 26.19 70.9714 32.535 68.1627C38.745 65.2318 46.845 61.2019 50.625 59.248C56.97 55.7065 57.24 55.3402 56.97 50.6997C56.7 48.013 57.105 44.3495 57.915 42.5177C58.725 40.6859 59.13 39.2204 58.995 39.3426C58.86 39.3426 45.495 46.3034 29.43 54.8517Z" fill="#ECECEC"/>
<path d="M213.03 48.135L213.57 55.7064L227.88 63.1557C235.845 67.3078 244.215 71.3377 246.645 72.0704C248.94 72.9253 252.18 74.8792 253.8 76.4667C256.77 79.3976 256.905 80.1303 256.635 101.501C256.365 121.651 256.635 123.605 258.795 124.337C260.145 124.704 263.25 126.413 265.68 128.001L270 130.932V100.646V70.2386L242.055 55.7064C226.665 47.6466 213.84 40.93 213.435 40.6858C212.895 40.5637 212.76 43.8609 213.03 48.135Z" fill="#ECECEC"/>
<path d="M106.38 55.9507C101.385 60.8355 99.9 69.1396 103.005 74.5128C105.435 78.9091 107.595 78.9091 108.54 74.5128C110.295 66.453 115.155 65.1097 120.555 70.9714C122.445 72.9253 124.335 74.635 124.605 74.635C126.36 74.635 126.765 70.2387 125.415 65.9645C122.445 57.0498 111.24 51.0659 106.38 55.9507Z" fill="#ECECEC"/>
<path d="M153.63 55.7065C149.04 58.0268 144.45 64.8654 144.45 69.506C144.45 74.7571 146.205 75.1234 149.715 70.9714C154.575 64.9875 159.705 66.5751 161.46 74.3907C162.54 79.0313 163.755 79.2755 166.59 75.6119C171.72 69.0175 166.725 53.7526 159.57 53.8747C158.355 53.9968 155.655 54.7295 153.63 55.7065Z" fill="#ECECEC"/>
<path d="M67.3651 76.2224C65.6101 77.0773 63.7201 79.5196 63.0451 81.5957C61.2901 86.8468 66.5551 96.7385 71.8201 98.326C76.5451 99.7914 77.4901 98.9366 75.4651 95.0288C74.6551 93.3191 74.3851 90.3883 74.7901 88.6786C75.6001 85.7477 76.2751 85.3814 80.0551 85.992C82.4851 86.3583 85.4551 86.9689 86.8051 87.4574C88.5601 88.068 89.1001 87.7016 89.1001 85.8698C89.1001 82.939 82.2151 77.3215 77.2201 76.3445C75.1951 75.9782 72.9001 75.4897 72.0901 75.2455C71.2801 75.0012 69.1201 75.4897 67.3651 76.2224Z" fill="#ECECEC"/>
<path d="M192.375 76.4668C186.705 78.2986 180.9 83.3055 180.9 86.4806C180.9 87.7017 181.575 88.0681 183.33 87.4575C193.725 83.7939 198.18 86.3584 195.075 94.5404C193.455 98.6925 193.59 99.0588 196.02 99.0588C199.935 99.0588 206.28 92.7086 207.225 87.7017C208.71 80.9852 207.225 77.5659 202.365 75.9783C199.935 75.2456 198.045 74.635 197.91 74.635C197.775 74.7571 195.345 75.4898 192.375 76.4668Z" fill="#ECECEC"/>
<path d="M23.895 80.4967C19.17 85.2594 22.41 94.9068 30.105 99.0588C32.535 100.402 35.505 101.501 36.72 101.501C39.69 101.501 41.175 99.181 39.285 97.4713C36.99 95.3953 37.53 89.6557 39.96 88.8008C41.175 88.4345 43.605 88.0681 45.36 88.0681C48.87 88.0681 49.41 86.7248 47.25 83.1833C44.415 78.2986 27.945 76.4668 23.895 80.4967Z" fill="#ECECEC"/>
<path d="M227.205 80.7408C221.805 83.6717 221.13 88.068 225.855 88.068C227.61 88.068 230.175 88.8007 231.525 89.7777C234.09 91.3652 234.09 91.7316 231.93 95.8836C229.635 100.036 229.77 100.158 232.335 100.891C235.575 101.867 242.46 98.4481 246.105 93.8076C249.75 89.5334 249.885 82.3284 246.375 80.0081C242.595 77.4436 232.335 77.9321 227.205 80.7408Z" fill="#ECECEC"/>
<path d="M127.71 85.6257C123.66 90.022 121.905 98.8146 124.335 102.845C125.955 105.653 125.955 105.531 127.71 100.524C128.52 97.5934 130.14 94.5404 130.95 93.5634C135 89.1671 141.345 93.1971 142.695 100.768C143.37 104.31 143.775 104.921 145.26 103.821C146.34 103.089 147.15 100.28 147.15 97.7155C147.15 84.2824 135.675 77.0773 127.71 85.6257Z" fill="#ECECEC"/>
<path d="M90.7199 98.0819C87.0749 99.7915 85.7249 103.699 87.0749 109.683C88.1549 114.812 94.3649 121.04 98.4149 121.04C101.115 121.04 101.115 120.918 97.8749 116.644C94.3649 112.003 93.9599 110.294 95.3099 107.119C96.5249 104.31 104.22 104.676 108.54 107.729C112.995 110.904 114.75 109.805 112.05 105.409C108.27 99.5473 96.6599 95.5174 90.7199 98.0819Z" fill="#ECECEC"/>
<path d="M167.805 98.4482C162.135 100.646 157.95 104.554 157.95 107.729V110.172L161.46 107.729C165.24 105.043 173.34 104.31 174.825 106.508C176.31 108.584 174.285 115.545 171.315 118.354C168.885 120.796 168.75 121.04 171.045 121.04C180.765 121.04 188.325 103.333 180.63 98.5703C176.985 96.2501 173.475 96.128 167.805 98.4482Z" fill="#ECECEC"/>
<path d="M48.87 111.271C42.93 112.492 39.15 115.789 39.15 119.819C39.15 126.291 48.195 133.252 56.565 133.252C62.235 133.252 62.64 131.665 58.05 128.49C50.895 123.849 53.595 117.377 62.64 117.377C66.69 117.377 67.095 116.033 63.855 113.469C60.75 111.026 54.54 110.172 48.87 111.271Z" fill="#ECECEC"/>
<path d="M206.28 113.957L203.175 116.766L207.9 117.132C212.49 117.499 217.35 120.308 217.35 122.506C217.35 123.116 215.46 125.314 213.3 127.39C208.845 131.42 209.115 133.252 214.11 133.252C221.805 133.252 230.85 126.169 230.85 120.308C230.85 114.446 225.72 111.271 216.54 111.271C210.735 111.271 208.575 111.881 206.28 113.957Z" fill="#ECECEC"/>
<path d="M15.66 131.42C9.71999 133.252 6.07499 136.183 4.85999 140.091C2.69999 146.441 17.55 154.623 25.92 151.692C31.185 149.86 31.32 148.639 27 145.586C22.005 142.289 21.87 140.213 26.46 137.038C30.105 134.473 30.105 130.81 26.46 130.81C25.38 130.81 23.76 130.565 22.68 130.199C21.735 129.955 18.495 130.443 15.66 131.42Z" fill="#ECECEC"/>
<path d="M78.84 131.909C73.44 134.107 68.85 138.503 68.85 141.312C68.85 142.167 70.335 144.487 72.225 146.441C76.41 150.959 85.455 153.524 90.855 151.692C95.58 150.105 95.58 148.517 90.855 148.151C86.94 147.906 80.865 144.487 79.92 142.045C78.975 139.48 85.995 134.473 90.45 134.473C95.445 134.473 95.715 132.397 90.99 130.81C86.4 129.222 85.32 129.222 78.84 131.909Z" fill="#ECECEC"/>
<path d="M178.065 131.909L174.825 134.351L179.145 134.473C184.95 134.473 191.025 139.236 189.81 142.655C188.865 145.342 183.6 147.906 178.47 148.273C174.42 148.517 175.365 150.471 180.09 151.936C185.085 153.402 193.59 151.204 197.91 147.296C205.2 140.701 199.665 133.13 185.49 130.321C182.385 129.711 180.495 130.077 178.065 131.909Z" fill="#ECECEC"/>
<path d="M243.405 131.42C239.49 133.985 239.49 134.962 243.675 136.671C245.97 137.648 247.05 139.114 247.05 141.19C247.05 143.266 245.97 144.731 243.675 145.708C239.22 147.54 239.355 149.738 244.215 151.448C252.045 154.501 265.95 148.029 265.95 141.312C265.95 134.107 250.02 127.268 243.405 131.42Z" fill="#ECECEC"/>
<path d="M47.925 152.059C38.475 157.188 36.585 164.393 43.335 169.033C48.06 172.208 59.805 172.33 63.45 169.277C67.365 166.102 66.825 165.003 61.56 165.003C59.13 165.003 56.295 164.148 55.35 163.171C53.055 160.607 54.81 155.6 58.86 153.28C61.425 151.692 61.83 150.959 60.48 150.227C57.51 148.395 53.595 149.006 47.925 152.059Z" fill="#ECECEC"/>
<path d="M210.06 150.105C209.655 150.837 211.005 153.035 213.3 154.989C215.46 157.065 217.35 159.264 217.35 159.996C217.35 162.072 211.545 165.003 207.63 165.003C205.47 165.003 203.85 165.492 203.85 166.102C203.85 168.789 210.06 171.109 217.08 171.109C223.29 171.109 224.91 170.621 228.285 167.568C230.445 165.614 232.2 163.538 232.2 162.927C232.2 160.851 226.8 154.012 223.695 152.181C219.51 149.738 211.275 148.395 210.06 150.105Z" fill="#ECECEC"/>
<path d="M0 181.001V212.141L23.22 224.231C36.045 230.948 49.41 237.908 52.92 239.74L59.265 243.159L57.78 239.496C57.105 237.42 56.7 233.878 56.97 231.436L57.51 227.162L42.255 219.346C33.885 214.95 26.595 211.408 25.92 211.408C25.245 211.408 22.14 209.699 19.17 207.745L13.5 204.081V181.489V159.019L8.775 156.943C6.075 155.844 3.105 153.768 2.025 152.303C0.27 150.105 0 153.28 0 181.001Z" fill="#ECECEC"/>
<path d="M266.76 153.89C265.41 155.234 262.575 156.943 260.415 157.798L256.365 159.264L256.635 181.001C257.04 202.249 257.04 202.86 253.935 205.791C252.18 207.378 248.94 209.455 246.645 210.309C244.215 211.164 235.845 215.072 227.88 219.224L213.57 226.673L213.03 234.367C212.76 238.519 212.76 241.938 213.03 241.938C213.3 241.938 226.125 235.344 241.65 227.162L270 212.385V181.978C270 165.247 269.73 151.57 269.595 151.57C269.325 151.57 267.975 152.669 266.76 153.89Z" fill="#ECECEC"/>
<path d="M92.88 164.637C85.59 171.476 84.24 180.757 89.91 184.176C93.015 185.886 94.23 186.008 99.765 184.787C105.975 183.321 113.4 177.581 113.4 174.284C113.4 173.185 111.51 173.552 106.785 175.628C101.25 178.192 99.63 178.436 97.2 177.215C94.77 175.994 94.365 175.017 95.04 171.964C95.445 169.766 97.065 166.591 98.55 164.637C101.25 161.462 101.25 161.34 98.82 161.34C97.47 161.34 94.77 162.805 92.88 164.637Z" fill="#ECECEC"/>
<path d="M171.45 164.026C174.555 167.079 176.04 170.987 175.23 174.406C174.555 177.826 166.59 178.07 161.73 174.773L157.95 172.208V174.773C157.95 178.436 163.485 182.833 170.1 184.664C174.96 186.008 176.31 185.886 179.415 184.42C188.19 180.024 181.575 161.34 171.18 161.34C168.75 161.34 168.75 161.462 171.45 164.026Z" fill="#ECECEC"/>
<path d="M143.1 180.268C143.1 185.153 139.05 190.648 135.405 190.648C132.03 190.648 126.9 184.542 126.9 180.39C126.9 178.558 126.495 178.436 124.875 179.657C120.96 182.588 122.985 192.236 128.52 197.609C133.92 202.86 142.56 200.174 145.8 192.358C147.825 187.717 147.42 180.146 145.125 178.436C143.37 177.093 143.1 177.459 143.1 180.268Z" fill="#ECECEC"/>
<path d="M30.51 183.199C22.545 187.962 18.9 197.853 23.76 202.127C27.945 205.913 44.55 203.837 47.25 199.196C49.545 195.411 48.735 194.312 43.875 194.312C38.205 194.312 36.72 191.991 38.88 186.618C40.095 183.687 40.095 182.588 38.745 181.856C36.315 180.39 34.83 180.634 30.51 183.199Z" fill="#ECECEC"/>
<path d="M231.255 181.611C230.04 182.1 230.175 183.321 231.93 186.618C234.09 190.648 234.09 191.015 231.525 192.602C230.175 193.579 227.61 194.312 225.855 194.312C221.13 194.312 221.805 198.708 227.205 201.639C233.28 205.058 243.405 204.936 247.185 201.517C252.045 197.121 248.4 187.962 239.895 183.321C235.575 180.879 234.09 180.634 231.255 181.611Z" fill="#ECECEC"/>
<path d="M193.05 182.588C193.05 182.833 193.995 185.031 195.075 187.351C198.585 194.922 194.4 198.342 185.76 195.045C181.44 193.457 180.9 193.457 180.9 195.045C180.9 198.586 183.735 201.639 189 204.081C199.125 208.722 207.9 206.28 207.9 198.83C207.9 193.457 203.985 186.374 199.935 184.176C196.29 182.222 193.05 181.489 193.05 182.588Z" fill="#ECECEC"/>
<path d="M68.175 186.496C63.45 191.137 61.425 198.342 63.72 202.616C65.61 206.035 71.28 207.501 77.76 206.035C82.215 204.936 89.1 199.319 89.1 196.632C89.1 193.945 89.1 193.945 84.24 195.655C82.08 196.266 78.975 196.51 77.22 196.144C74.385 195.533 74.115 194.8 74.52 191.503C74.925 189.305 75.6 186.618 76.275 185.397C77.895 181.978 71.955 182.833 68.175 186.496Z" fill="#ECECEC"/>
<path d="M104.085 205.791C99.6299 210.554 101.385 223.132 107.055 226.673C111.24 229.238 113.94 228.994 118.935 225.208C124.065 221.178 127.305 214.95 126.09 210.798C125.01 206.89 123.795 206.89 121.5 210.798C119.34 214.339 114.21 216.049 111.51 213.973C110.43 213.118 109.215 210.676 108.81 208.355C107.865 203.715 106.515 203.104 104.085 205.791Z" fill="#ECECEC"/>
<path d="M162 206.524C162 214.828 154.845 217.759 149.715 211.408C146.205 207.134 144.45 207.623 144.45 212.996C144.45 220.812 154.17 229.604 161.19 228.017C167.805 226.551 171.315 212.874 166.59 206.768C164.025 203.471 162 203.349 162 206.524Z" fill="#ECECEC"/>
<path d="M70.335 222.033C63.585 227.04 63.99 242.305 71.01 243.892C79.11 245.724 90.45 238.153 90.45 230.947C90.45 227.65 90.045 227.162 88.155 228.017C86.805 228.505 83.97 228.994 81.675 228.994C77.895 229.116 77.625 228.749 77.22 224.475C76.68 219.468 74.79 218.736 70.335 222.033Z" fill="#ECECEC"/>
<path d="M194.4 222.399C194.4 228.994 189.675 231.436 184.14 227.895C180.765 225.818 179.55 226.551 179.55 230.947C179.55 240.839 197.91 248.777 203.31 241.328C207.63 235.466 203.175 221.3 196.56 220.201C195.075 219.957 194.4 220.567 194.4 222.399Z" fill="#ECECEC"/>
<path d="M125.01 238.397C122.445 241.694 122.31 245.235 124.335 250.12C130.545 265.019 147.15 260.012 147.15 243.159C147.15 239.618 146.475 238.03 144.585 237.053C142.425 236.076 141.75 236.321 141.075 238.275C140.67 239.618 138.915 241.328 137.295 242.06C134.865 243.281 134.055 243.037 130.815 239.618L127.17 235.588L125.01 238.397Z" fill="#ECECEC"/>
<path d="M84.24 249.265L77.22 252.563L105.03 267.095C120.285 275.033 133.515 281.749 134.46 281.993C135.405 282.238 149.04 275.643 164.7 267.461L193.185 252.563L185.22 249.021L177.39 245.48L163.89 252.441C156.6 256.226 149.31 260.378 147.825 261.6C146.34 262.821 142.83 264.652 140.13 265.629C134.46 267.828 131.76 267.095 122.175 261.355C113.805 256.226 93.15 245.602 92.07 245.724C91.53 245.846 88.02 247.434 84.24 249.265Z" fill="#ECECEC"/>
</svg>
